<svg version="1.2" xmlns="http://www.w3.org/2000/svg" viewBox="0 0 181 181" width="181" height="181">
	<title>shi4gud-favicon</title>
	<defs>
		<linearGradient id="g1" x2="1" gradientUnits="userSpaceOnUse" gradientTransform="matrix(164.989,0,0,158.627,7.468,2.846)">
			<stop offset="0" stop-color="#f79d0a"/>
			<stop offset=".993" stop-color="#f865b0"/>
		</linearGradient>
		<linearGradient id="g2" x2="1" gradientUnits="userSpaceOnUse" gradientTransform="matrix(52.914,0,0,51.828,23.115,126.747)">
			<stop offset="0" stop-color="#f79d0a"/>
			<stop offset=".993" stop-color="#f865b0"/>
		</linearGradient>
	</defs>
	<style>
		.s0 { fill: url(#g1) } 
		.s1 { fill: url(#g2) } 
	</style>
	<g id="Calque 1">
		<g id="&lt;Group&gt;">
			<g id="&lt;Group&gt;">
				<path id="&lt;Compound Path&gt;" class="s0" d="m166.4 99.5c3.7-1.2 6.1-3 6.1-3-2.7-5.9-11.5-8.7-11.5-8.7 5.9-3.5 8.2-8.4 8.2-8.4-5.7-1.7-11.3 0-11.5 0 17.1-46.2 2.9-76.5 2.9-76.5-8.4-0.5-18 4-26.4 9.5q1-0.3 2-0.3 4 0 7.9 3.8c2.5 2.6 3.8 5.1 3.8 7.6 0 1-0.2 2-0.6 2.9-10.6 23.3-21.6 48-33 74.2l3.7 0.3q3.3 0.5 5.2 3.9 2 3.5 2 6.8-0.2 5.3-7 5.3c-3.9 0-7.5-0.2-10.7-0.5l-18 42.4c-0.4 1-0.9 1.9-1.4 2.7 0.6 0 1.3 0 1.9 0 4.4 0 8.8-0.6 13-1.8 39.4-11.3 52.9-36.3 56.7-46.1 0.5 0 0.9 0 1.4 0 3.6 0 5.6-1 6.2-1.4l2.4-1.5-0.3-2.7c-0.2-3.7-1.7-6.6-3-8.5zm-70.6-0.4l1.5-4q9.5-24.7 19.4-49.4l-6.8 7c-16.2 16.1-30.9 31.2-44 45.4q15.6 0 29.9 1zm-40.2 19c-3.3 0.4-5.4 0.6-6.2 0.6q-7.4 0-10.4-8.8-0.4-1.1-0.4-2.3c0-2.4 0.9-4.4 2.8-6.1l17.7-20.5c10-12.2 25-29.3 44.7-51.5-3.3-0.7-6.2-1.1-8.5-1.4 3.1-1.9 5.4-4.6 5.4-4.6-4.9-2.6-9.7-0.7-9.7-0.7 4.2-5.8 3.5-11.2 3.5-11.2-4.9 1.4-7.7 3.1-11.5 7.4-2.9 3.5-3.8 8.2-4 10-3.1 0.5-6.6 1.4-10.2 2.7 0 0-28.2-30-49.5-28.8 0 0-14.2 30.3 3 76.5-0.2 0-5.9-1.7-11.5 0 0 0 2.3 4.9 8.2 8.4 0 0-8.9 2.8-11.5 8.7 0 0 2.3 1.8 6 3-1.3 1.9-2.7 4.8-3 8.5l-0.3 2.7 2.4 1.5c0.7 0.4 2.6 1.4 6.3 1.4 0.4 0 0.9 0 1.3 0 1.4 3.3 3.8 8.5 8.1 14.2q1.7-1.4 3.7-2.6c2.2-1.3 4.5-2.4 7-3.2 0.9-0.2 3.9-1 5.7-1h0.7l0.9 0.2c1.6 0.5 2.4 1.2 2.7 1.6 1.1 0.9 1.8 1.9 2.5 2.7l0.4 0.6 0.1 0.1c3.6 5.1 5.4 11.4 5 16.9q0.3 0.2 0.5 0.4c0.2 0.2 0.4 0.3 0.6 0.5q2.2-0.4 4.7-0.4c4.3 0 8.8 1 12.7 3q0.8 0.4 1.4 0.8 3.9-10.1 12.3-31.4-12.6 0.2-33.6 2.1z"/>
			</g>
			<g id="&lt;Group&gt;">
				<path id="&lt;Path&gt;" class="s1" d="m75.8 158q-0.3 1.5-0.7 3c-1.3 4.7-3.9 8.8-7.4 12-4.4 3.9-9.3 5.9-14.5 5.6-0.6 0-1.3 0-1.5-0.1-0.2 0-0.7-0.1-1.1-0.2-0.7-0.1-0.8-0.1-1.1-0.5-1-1-2.5-4.5-3.4-8.2-0.9-3.8-1.1-5.7-1-7.8l0.1-1.3c-0.6-0.3-0.9-0.4-1.5-1-0.8-0.6-0.9-0.8-1.2-1.3l-1.3 0.2c-2.1 0.5-3.9 0.5-7.9 0.1-3.7-0.4-7.4-1.3-8.5-2.2-0.4-0.3-0.5-0.3-0.7-1-0.1-0.4-0.3-0.8-0.4-1 0-0.2-0.2-0.9-0.3-1.6-0.9-5 0.3-10.2 3.6-15.1 3.2-4.7 8-8.3 13.7-10.1 1.1-0.3 3.7-0.8 4.1-0.7 0.2 0 0.2 0.1 0.4 0.2 0.8 0.8 1.5 1.7 2.1 2.5 3.4 4.8 4.8 11.1 3.6 15.7-0.1 0.5-0.2 1-0.2 1 0.9 0.3 1.8 0.6 3.1 1.7 1.2 1 1.6 1.7 2.1 2.8 0 0.1 0.5-0.1 0.9-0.3 4.4-1.9 10.9-1.3 16.1 1.3 0.7 0.4 1.4 0.8 2 1.2 0.5 0.4 1 0.7 1.1 0.9 0.1 0.4 0 3.1-0.2 4.2z"/>
			</g>
		</g>
	</g>
</svg>