<svg version="1.2" xmlns="http://www.w3.org/2000/svg" viewBox="0 0 563 563" width="563" height="563">
	<title>shi4gud-coin</title>
	<defs>
		<linearGradient id="g1" x2="1" gradientUnits="userSpaceOnUse" gradientTransform="matrix(0,550.458,-550.458,0,557.229,5.771)">
			<stop offset="0" stop-color="#f9d959"/>
			<stop offset="1" stop-color="#f7bd51"/>
		</linearGradient>
		<linearGradient id="g2" x2="1" gradientUnits="userSpaceOnUse" gradientTransform="matrix(0,430.265,-450.963,0,487.227,76.535)">
			<stop offset="0" stop-color="#d7a640"/>
			<stop offset="1" stop-color="#cc9d3d"/>
		</linearGradient>
		<linearGradient id="g3" x2="1" gradientUnits="userSpaceOnUse" gradientTransform="matrix(0,228.965,-341.648,0,304.043,76.535)">
			<stop offset="0" stop-color="#e9c564"/>
			<stop offset="1" stop-color="#d7a640"/>
		</linearGradient>
		<linearGradient id="g4" x2="1" gradientUnits="userSpaceOnUse" gradientTransform="matrix(0,292.936,-393.848,0,419.583,213.864)">
			<stop offset="0" stop-color="#d7a640"/>
			<stop offset="1" stop-color="#bc8f31"/>
		</linearGradient>
		<linearGradient id="g5" x2="1" gradientUnits="userSpaceOnUse" gradientTransform="matrix(318.433,0,0,211.775,122.784,139.419)">
			<stop offset="0" stop-color="#d7a640"/>
			<stop offset="1" stop-color="#bc8f31"/>
		</linearGradient>
		<linearGradient id="g6" x2="1" gradientUnits="userSpaceOnUse" gradientTransform="matrix(44.503,0,0,84.323,159.547,171.195)">
			<stop offset="0" stop-color="#f9d959"/>
			<stop offset="1" stop-color="#f7bd51"/>
		</linearGradient>
		<linearGradient id="g7" x2="1" gradientUnits="userSpaceOnUse" gradientTransform="matrix(44.438,0,0,84.184,360.021,171.195)">
			<stop offset="0" stop-color="#f9d959"/>
			<stop offset="1" stop-color="#f7bd51"/>
		</linearGradient>
		<linearGradient id="g8" x2="1" gradientUnits="userSpaceOnUse" gradientTransform="matrix(52.823,0,0,31.613,255.641,393.596)">
			<stop offset="0" stop-color="#f9d959"/>
			<stop offset="1" stop-color="#f7bd51"/>
		</linearGradient>
		<linearGradient id="g9" x2="1" gradientUnits="userSpaceOnUse" gradientTransform="matrix(102.116,0,0,100.168,142.11,357.478)">
			<stop offset="0" stop-color="#f9d959"/>
			<stop offset="1" stop-color="#f7bd51"/>
		</linearGradient>
		<linearGradient id="g10" x2="1" gradientUnits="userSpaceOnUse" gradientTransform="matrix(550.458,0,0,550.458,6.771,5.771)">
			<stop offset="0" stop-color="#f79d0a"/>
			<stop offset=".993" stop-color="#f865b0"/>
		</linearGradient>
		<linearGradient id="g11" x2="1" gradientUnits="userSpaceOnUse" gradientTransform="matrix(-319.828,479.742,-479.742,-319.828,851.564,114.726)">
			<stop offset="0" stop-color="#f79d0a"/>
			<stop offset=".993" stop-color="#f865b0"/>
		</linearGradient>
	</defs>
	<style>
		.s0 { fill: url(#g1) } 
		.s1 { fill: #fbe387 } 
		.s2 { fill: #ad7538 } 
		.s3 { fill: url(#g2) } 
		.s4 { fill: url(#g3) } 
		.s5 { fill: url(#g4) } 
		.s6 { fill: #8e6032 } 
		.s7 { fill: url(#g5) } 
		.s8 { fill: url(#g6) } 
		.s9 { fill: url(#g7) } 
		.s10 { fill: url(#g8) } 
		.s11 { fill: url(#g9) } 
		.s12 { mix-blend-mode: color;fill: url(#g10) } 
		.s13 { opacity: .85;mix-blend-mode: hard-light;fill: url(#g11) } 
	</style>
	<g id="Calque 1">
		<g id="&lt;Group&gt;">
			<g id="&lt;Group&gt;">
				<g id="&lt;Group&gt;">
					<path id="&lt;Path&gt;" class="s0" d="m557.2 281q0 9.4-0.6 18.7c-9.6 143.3-128.9 256.5-274.6 256.5-81.3 0-154.4-35.2-204.7-91.3-36.4-40.4-60.9-91.6-68.2-148.1q-1.1-8.5-1.7-17.1c-0.3-4.9-0.5-9.9-0.6-14.8q0-1.9 0-3.9c0-15 1.2-29.7 3.5-44 21-131.1 134.7-231.2 271.7-231.2 13.4 0 26.7 0.9 39.6 2.8 23.5 3.4 46.1 9.8 67.3 18.7 21.8 9.3 42.3 21.2 60.9 35.5 48.2 37.1 83.7 89.8 99 150.5 5.5 21.6 8.4 44.3 8.4 67.7z"/>
					<path id="&lt;Path&gt;" class="s1" d="m388.9 27.3l-382.1 257.6q0-1.9 0-3.9c0-15 1.2-29.7 3.5-44l311.3-228.4c23.5 3.4 46.1 9.8 67.3 18.7z"/>
					<path id="&lt;Path&gt;" class="s1" d="m548.8 213.3l-471.5 251.6c-36.4-40.4-60.9-91.6-68.2-148.1l440.7-254c48.2 37.1 83.7 89.8 99 150.5z"/>
				</g>
				<path id="&lt;Path&gt;" class="s2" d="m507.8 281q0 5.1-0.3 10.2c-5.8-119.5-104.5-214.7-225.5-214.7-121 0-219.7 95.2-225.5 214.7q-0.3-5.1-0.3-10.2c0-124.7 101.1-225.8 225.8-225.8 124.7 0 225.8 101.1 225.8 225.8z"/>
				<g id="&lt;Group&gt;">
					<path id="&lt;Path&gt;" class="s3" d="m507.5 291.2c0 1.7-0.1 3.4-0.2 5.2-7.9 117.5-105.8 210.4-225.3 210.4-66.9 0-126.9-29.1-168.3-75.3-30.7-34.2-51-77.8-56.1-126-0.4-3-0.7-6.1-0.9-9.1-0.1-1.8-0.2-3.5-0.2-5.2 5.8-119.5 104.5-214.7 225.5-214.7 42.5 0 82.2 11.8 116.2 32.2 40.5 24.4 72.8 61.2 91.6 105.2 10.2 23.9 16.4 50 17.7 77.3z"/>
					<path id="&lt;Path&gt;" class="s4" d="m398.2 108.7l-340.6 196.8c-0.4-3-0.7-6.1-0.9-9.1-0.1-1.8-0.2-3.5-0.2-5.2 5.8-119.5 104.5-214.7 225.5-214.7 42.5 0 82.2 11.8 116.2 32.2z"/>
					<path id="&lt;Path&gt;" class="s5" d="m507.5 291.2c0 1.7-0.1 3.4-0.2 5.2-7.9 117.5-105.8 210.4-225.3 210.4-66.9 0-126.9-29.1-168.3-75.3l376.1-217.6c10.2 23.9 16.4 50 17.7 77.3z"/>
				</g>
			</g>
			<g id="&lt;Group&gt;">
				<path id="&lt;Compound Path&gt;" fill-rule="evenodd" class="s6" d="m419.7 336.2c2 2 6.3 7.2 6.9 15 0 0-4.5 2.8-16 0.3 0 0-16 64.6-105.8 90.3-14.9 4.3-30.7 4.3-45.6 0-6.4-1.8-12.4-3.9-18.1-6.1-2.8 7.5-7.1 14.2-13 19.4-8.3 7.5-17.9 11.3-27.9 10.8-1.2 0-2.6-0.1-3-0.2-0.4 0-1.3-0.2-2.1-0.4-1.3-0.2-1.4-0.3-2.1-0.9-1.9-2.1-4.7-8.8-6.4-15.9-1.8-7.4-2.3-10.9-2-15.1l0.1-2.4c-1.2-0.7-1.7-0.9-2.9-2-1.4-1.2-1.7-1.6-2.4-2.6l-2.3 0.5c-4.1 0.9-7.7 0.9-15.3 0.1-7.2-0.7-14.3-2.5-16.5-4.2-0.8-0.5-0.9-0.7-1.3-1.9-0.2-0.7-0.6-1.6-0.7-2-0.1-0.4-0.4-1.7-0.6-2.9-1.8-9.8 0.5-19.9 6.8-29.2 3.6-5.4 8.4-9.8 13.9-13.4-7.6-12.7-9.9-21.9-9.9-21.9-11.5 2.5-16.1-0.3-16.1-0.3 0.6-7.8 4.9-13 7-15-12.8-1-21.6-7.7-21.6-7.7 5.2-11.4 22.2-16.8 22.2-16.8-11.5-6.7-15.8-16.2-15.8-16.2 10.8-3.4 21.7-0.2 22.2 0-33.2-89.3-5.8-147.7-5.8-147.7 41.2-2.2 95.6 55.5 95.6 55.5 6.9-2.5 13.7-4.1 19.6-5.3 0.4-3.3 2.1-12.4 7.8-19.1 7.2-8.3 12.7-11.7 22.1-14.3 0 0 1.4 10.4-6.7 21.5 0 0 9.3-3.5 18.8 1.5 0 0-4.5 5.3-10.5 8.9 7.6 0.8 18.8 2.6 30.6 6.8 0 0 54.3-57.7 95.6-55.5 0 0 27.3 58.4-5.9 147.7 0.5-0.2 11.4-3.4 22.3 0 0 0-4.4 9.5-15.8 16.2 0 0 17 5.4 22.1 16.8 0 0-8.7 6.7-21.5 7.7zm-0.9 0c0 0-5.3-3.8-12.3-6.8 7 3.1 12.3 6.8 12.3 6.8zm-263.1-6c-6.1 2.9-10.4 6-10.4 6h-0.6q0.3 0 0.6 0c0 0 4.3-3.1 10.4-6z"/>
				<g id="&lt;Group&gt;">
					<path id="&lt;Compound Path&gt;" fill-rule="evenodd" class="s7" d="m441.2 320.2c0 0-8.8 6.7-21.5 7.7h-0.9c0 0-14.8-10.7-28.1-10.7-13.4 0-22.8 13.3-30.7 19.2-8 5.9-20.7 14.8-33.1 14.8q-1.8 0-3.8-0.2c-1.2-0.1-2.5-0.2-3.7-0.5q-1.4-0.2-2.8-0.4c-2.8-0.4-5.6-1-8.5-1.5-1.1-0.3-2.3-0.5-3.4-0.8-1.1-0.2-2.3-0.5-3.5-0.7q-1.7-0.4-3.4-0.6c-1.2-0.3-2.2-0.4-3.4-0.7-4.5-0.7-8.7-1.3-12.4-1.3-7.4 0-17 2.2-26.1 4.1-2.9 0.5-5.7 1.1-8.4 1.5q-1.4 0.2-2.8 0.4c-1.2 0.3-2.5 0.4-3.7 0.5q-2.1 0.2-3.9 0.2c-12.3 0-25-8.9-33-14.8-8-5.9-17.4-19.2-30.7-19.2-13.3 0-28.1 10.7-28.1 10.7h-0.9c-12.8-1-21.6-7.7-21.6-7.7 5.2-11.4 22.2-16.8 22.2-16.8-11.5-6.7-15.8-16.2-15.8-16.2 10.8-3.4 21.7-0.2 22.2 0-33.2-89.3-5.8-147.7-5.8-147.7 41.2-2.2 95.6 55.5 95.6 55.5 6.9-2.5 13.7-4.1 19.6-5.3 0.4-3.3 2.1-12.4 7.8-19.1 7.2-8.3 12.7-11.7 22.1-14.3 0 0 1.4 10.4-6.7 21.5 0 0 9.3-3.5 18.8 1.5 0 0-4.5 5.3-10.5 8.9 7.6 0.7 18.8 2.6 30.6 6.8 0 0 54.3-57.7 95.6-55.5 0 0 27.3 58.4-5.9 147.7 0.5-0.2 11.4-3.4 22.3 0 0 0-4.4 9.5-15.8 16.2 0 0 17 5.4 22.1 16.8zm-237.2-106.2c4.1-3.2 8.5-6.2 13.4-8.7 0 0-29.5-45.4-64.2-49.6 0 0-18.2 63.3 10.6 129.8 0 0 2-13.6 9.4-30.1 6-13.7 15.7-29.5 30.8-41.4zm196.3 71.5c28.7-66.5 10.5-129.8 10.5-129.8-34.6 4.2-64.1 49.6-64.1 49.6 4.8 2.5 9.3 5.5 13.3 8.7 15.1 11.9 24.8 27.7 30.9 41.4 7.3 16.5 9.4 30.1 9.4 30.1z"/>
					<path id="&lt;Path&gt;" class="s8" d="m204 214c-15.1 11.9-24.8 27.7-30.8 41.4-20-38.1-12.1-84.2-12.1-84.2 25.1 9.2 42.7 42.3 42.7 42.3z"/>
					<path id="&lt;Path&gt;" class="s9" d="m390.9 255.4c-6.1-13.7-15.8-29.5-30.9-41.4l0.2-0.5c0 0 17.6-33.1 42.7-42.3 0 0 7.9 46.1-12 84.2z"/>
					<path id="&lt;Path&gt;" class="s1" d="m426.6 342.9c0 0-4.5 2.8-16 0.3 0 0-16 64.6-105.8 90.3-14.9 4.2-30.7 4.2-45.6 0-89.7-25.7-105.7-90.3-105.7-90.3-11.5 2.5-16.1-0.3-16.1-0.3 0.7-7.8 4.9-13 7-15q0.4 0 0.9 0c0 0 14.7-10.7 28.1-10.7 13.3 0 22.7 13.3 30.7 19.2 8 5.9 20.7 14.8 33 14.8 12.3 0 31.9-6.7 44.9-6.7 13 0 32.6 6.7 45 6.7 12.3 0 24.9-8.9 32.9-14.8 8-5.9 17.4-19.2 30.8-19.2 13.3 0 28.1 10.7 28.1 10.7q0.4 0 0.9 0c2 2 6.3 7.2 6.9 15z"/>
					<path id="&lt;Path&gt;" class="s1" d="m233.8 231.6c7.3-5.1 19.5-0.5 27.1 10.4 7.7 10.9 8 23.9 0.7 29-7.3 5.2-19.4 0.5-27.1-10.4-7.7-10.8-8-23.8-0.7-29z"/>
					<path id="&lt;Path&gt;" class="s1" d="m303.1 242c7.7-10.9 19.8-15.6 27.1-10.4 7.3 5.1 7 18.1-0.7 29-7.6 10.9-19.8 15.6-27.1 10.4-7.3-5.1-7-18.1 0.7-29z"/>
					<path id="&lt;Path&gt;" class="s10" d="m278.5 425c-6.8-1-12.8-3.9-16.8-8.4-3.4-3.6-5.5-8.3-5.9-12.7-0.1-1-0.1-2-0.2-3.1 6.2-1.4 20.4-2.5 26.2-7.2 7.7 3.1 16.7 5.1 26.6 6.3 0.1 1.3 0 2.7-0.1 4-0.5 5.4-3.7 11.2-8.2 15-5.8 4.7-14.2 7.1-21.6 6.1z"/>
					<path id="&lt;Compound Path&gt;" class="s6" d="m251 401.7c-5.4-0.3-10.7-1.7-15.3-4-5.3-2.6-9.3-6.1-12.4-10.7-2.9-4.4-4.4-8.9-4.9-14.6-0.2-2.7 0-6 0.5-6.9 0.3-0.6 0.9-0.9 1.4-0.8 0.8 0.3 0.9 0.8 1 4.9 0.2 4.3 0.3 5.3 1 7.9 3.7 13.8 17.6 22.3 35 21.3 7.2-0.4 14.9-2.4 21.7-5.7 1.1-0.5 1.4-0.8 1.6-1.2 0.3-0.7 0.4-10.4 0.2-10.6-5.7-2.1-11.8-5.3-16.1-8.7-4.9-4-13.6-13.5-12.2-19.5 0.5-1.5 2.4-3.9 4.5-5.6 13.6-9 38.1-8.6 50 0 2.1 1.7 4.1 4.1 4.5 5.6 0.8 2.8-0.8 7.1-4.4 11.7-1.5 2-5.5 5.9-7.8 7.8-5 4-10.4 6.4-16 8.7-0.3 0.2-0.1 9.9 0.2 10.6 0.2 0.6 1.3 1.2 4.9 2.7 24 9.9 48.2 2.2 53.3-17.1 0.7-2.6 0.8-3.6 1-7.9 0.1-4.1 0.2-4.6 1-4.9 0.5-0.1 1.2 0.2 1.5 0.8 0.4 0.9 0.7 4.2 0.4 6.9-0.6 7-3 12.9-7.4 17.9-3.4 3.9-8.9 7.5-14.4 9.3-4.6 1.5-8.3 2.1-13.9 2.2-3 0.1-4.2 0.1-6.5-0.2-7.6-0.9-14.9-3-21.4-6.6-2.6 1.3-5.6 2.6-7.4 3.3-7.7 2.8-15.5 4-23.6 3.4z"/>
					<g id="&lt;Group&gt;">
						<path id="&lt;Path&gt;" class="s11" d="m184.8 358.1c-0.3-0.3-0.5-0.5-0.8-0.6-0.8-0.2-5.9 0.8-8 1.5-11 3.4-20.3 10.3-26.5 19.5-6.3 9.3-8.6 19.4-6.8 29.1 0.2 1.3 0.5 2.6 0.6 3 0.1 0.4 0.5 1.3 0.7 2 0.4 1.2 0.5 1.4 1.3 1.9 2.2 1.7 9.3 3.5 16.5 4.2 7.6 0.8 11.2 0.8 15.3-0.1l2.3-0.5c0.7 1 1 1.4 2.4 2.6 1.2 1.1 1.7 1.3 2.9 2l-0.1 2.4c-0.3 4.2 0.2 7.7 2 15.1 1.7 7.1 4.5 13.8 6.4 15.8 0.7 0.7 0.8 0.8 2.1 1 0.8 0.2 1.7 0.4 2.1 0.4 0.4 0.1 1.8 0.2 3 0.2 10 0.5 19.6-3.3 27.9-10.8 8.3-7.4 13.8-17.6 15.7-29 0.3-2.1 0.6-7.4 0.3-8-0.4-0.9-3.2-2.7-5.9-4.1-10.2-5.2-22.5-6.2-31-2.6-0.9 0.4-1.8 0.7-1.8 0.7-1.1-2.2-1.8-3.6-4.1-5.5-2.4-2.1-4.2-2.7-6-3.3-0.1 0 0.1-0.9 0.4-1.9 2.4-8.9-0.4-21-6.9-30.3-1.2-1.6-2.5-3.4-4-4.7z"/>
					</g>
					<path id="&lt;Path&gt;" class="s1" d="m217.4 205.3c-4.9 2.5-9.3 5.5-13.4 8.7l-0.2-0.5c0 0-17.6-33.1-42.7-42.3 0 0-7.9 46.1 12.1 84.2-7.4 16.5-9.4 30.1-9.4 30.1-28.8-66.5-10.6-129.8-10.6-129.8 34.7 4.2 64.2 49.6 64.2 49.6z"/>
					<path id="&lt;Path&gt;" class="s1" d="m400.3 285.5c0 0-2.1-13.6-9.4-30.1 19.9-38.1 12-84.2 12-84.2-25.1 9.2-42.7 42.3-42.7 42.3l-0.2 0.5c-4-3.2-8.5-6.2-13.3-8.7 0 0 29.5-45.4 64.1-49.6 0 0 18.2 63.3-10.5 129.8z"/>
					<path id="&lt;Path&gt;" class="s1" d="m313.7 324.2c0 0-2.7-6.6 7-21.4 8-12.2 19.9-18.6 34.3-19.9 14.4-1.2 22.9 10 20.8 21.2 0 0-2.5-9-17.3-12-14.8-3-41.7 8.5-44.8 32.1z"/>
					<path id="&lt;Path&gt;" class="s6" d="m314.3 325.1c-0.5-0.4-0.5-0.5-0.5-2 0.1-2.5 1.1-6.2 2.7-9.4 4.2-8.4 12.1-15.7 21.3-19.6 10-4.2 21-4.2 28.9 0l1.4 0.8 0.9-0.5c3-1.5 6.4-6 7.6-10.1 0.6-2 0.8-1.9 0.7 0.1-0.3 4.7-2.4 8.7-6.1 11.5l-0.6 0.5 3.3 3.2c4.4-0.3 8.4-2.6 10.9-5.9 1.3-2 1.6-2.3 1.7-2.2 0.3 0.2-0.5 2.2-1.5 3.7-2.3 3.8-5.5 6.3-9.5 6.9 1.1 3.5-1.2 6.1-4.1 5.9-0.8 0-2.8-0.4-4.1-0.8-3.2-1-6.9-1.5-11.2-1.5-4.2 0-6.9 0.4-11 1.5-6.5 1.6-12 4-17.2 7.5-3.4 2.3-5.8 4.3-9 7.5-2.4 2.5-3.4 3.3-4 3.3-0.1 0-0.3-0.2-0.6-0.4z"/>
					<path id="&lt;Path&gt;" class="s1" d="m250.3 324.2c0 0 2.6-6.6-7-21.4-8-12.2-19.9-18.6-34.3-19.9-14.4-1.2-22.9 10-20.8 21.2 0 0 2.4-9 17.2-12 14.8-3 41.7 8.5 44.9 32.1z"/>
					<path id="&lt;Path&gt;" class="s6" d="m248.4 325.2c-0.3-0.1-1.8-1.4-3.2-3-1.5-1.5-3.6-3.4-4.6-4.3-3.8-3-9.1-6.2-13.6-8.1-3.8-1.6-9.1-3.1-13.1-3.7-5.4-0.8-12.4-0.3-17.2 1.2-1.2 0.3-3.3 0.7-4.1 0.7-4.6-0.3-4.7-3.7-4.1-5.8l-1-0.3c-3.7-0.8-6.8-3.7-8.5-6.6-0.9-1.6-1.7-3.6-1.5-3.8 0.2-0.1 0.4 0.2 1.8 2.2 2.6 3.2 5.9 5.4 9.8 5.8l1 0.2q1.7-1.7 3.4-3.3l-0.6-0.5c-3.7-2.8-5.9-6.8-6.1-11.5-0.1-2 0-2.1 0.6-0.1 1.2 4.1 4.6 8.6 7.6 10.1l0.9 0.5 1.4-0.8c8-4.2 19-4.2 29 0 9.2 4 17 11.2 21.2 19.6 1.6 3.2 2.7 6.9 2.7 9.4 0 1.5 0 1.6-0.5 2-0.5 0.4-0.6 0.4-1.3 0.1z"/>
				</g>
			</g>
			<path id="&lt;Path&gt;" class="s12" d="m557.2 281c0 152-123.2 275.2-275.2 275.2-152 0-275.2-123.2-275.2-275.2 0-152 123.2-275.2 275.2-275.2 152 0 275.2 123.2 275.2 275.2z"/>
			<path id="&lt;Path&gt;" class="s13" d="m557.2 281c0 152-123.2 275.2-275.2 275.2-152 0-275.2-123.2-275.2-275.2 0-152 123.2-275.2 275.2-275.2 152 0 275.2 123.2 275.2 275.2z"/>
		</g>
	</g>
</svg>