<svg version="1.2" xmlns="http://www.w3.org/2000/svg" viewBox="0 0 611 194" width="611" height="194">
	<title>shi4gud-dark</title>
	<defs>
		<linearGradient id="g1" x2="1" gradientUnits="userSpaceOnUse" gradientTransform="matrix(164.989,0,0,158.627,197.468,6.655)">
			<stop offset="0" stop-color="#f79d0a"/>
			<stop offset=".993" stop-color="#f865b0"/>
		</linearGradient>
		<linearGradient id="g2" x2="1" gradientUnits="userSpaceOnUse" gradientTransform="matrix(52.914,0,0,51.828,213.115,130.556)">
			<stop offset="0" stop-color="#f79d0a"/>
			<stop offset=".993" stop-color="#f865b0"/>
		</linearGradient>
	</defs>
	<style>
		.s0 { fill: url(#g1) } 
		.s1 { fill: #000000 } 
		.s2 { fill: url(#g2) } 
	</style>
	<g id="Calque 1">
		<g id="&lt;Group&gt;">
			<g id="&lt;Group&gt;">
				<path id="&lt;Compound Path&gt;" class="s0" d="m356.4 103.3c3.7-1.2 6.1-3 6.1-3-2.7-5.9-11.5-8.7-11.5-8.7 5.9-3.5 8.2-8.4 8.2-8.4-5.7-1.7-11.3 0-11.5 0 17.1-46.2 2.9-76.5 2.9-76.5-8.4-0.5-18 4-26.4 9.5q1-0.3 2-0.3 4 0 7.9 3.8c2.5 2.6 3.8 5.1 3.8 7.6 0 1-0.2 2-0.6 2.9-10.6 23.3-21.6 48-33 74.2l3.7 0.4q3.3 0.4 5.2 3.9 2 3.4 2 6.7-0.2 5.3-7 5.3c-3.9 0-7.5-0.2-10.7-0.5l-18 42.4c-0.4 1-0.9 1.9-1.4 2.7 0.6 0 1.3 0 1.9 0 4.4 0 8.8-0.6 13-1.8 39.4-11.3 52.9-36.3 56.7-46.1 0.5 0 0.9 0 1.4 0 3.6 0 5.6-1 6.2-1.4l2.4-1.5-0.3-2.7c-0.2-3.7-1.7-6.6-3-8.5zm-70.6-0.4l1.5-4q9.5-24.7 19.4-49.4l-6.8 7c-16.2 16.1-30.9 31.2-44 45.4q15.6 0 29.9 1zm-40.2 19c-3.3 0.4-5.4 0.6-6.2 0.6q-7.4 0-10.4-8.7-0.4-1.2-0.4-2.4c0-2.4 0.9-4.4 2.8-6l17.7-20.6c10-12.2 25-29.3 44.7-51.4-3.3-0.8-6.2-1.2-8.5-1.5 3.1-1.8 5.4-4.6 5.4-4.6-4.9-2.6-9.7-0.7-9.7-0.7 4.2-5.8 3.5-11.2 3.5-11.2-4.9 1.4-7.7 3.1-11.5 7.4-2.9 3.5-3.8 8.2-4 10-3.1 0.6-6.6 1.4-10.2 2.7 0 0-28.2-30-49.5-28.8 0 0-14.2 30.3 3 76.5-0.2 0-5.9-1.7-11.5 0 0 0 2.3 4.9 8.2 8.4 0 0-8.9 2.8-11.5 8.7 0 0 2.3 1.8 6 3-1.3 1.9-2.7 4.8-3 8.5l-0.3 2.7 2.4 1.5c0.7 0.4 2.6 1.4 6.3 1.4 0.4 0 0.9 0 1.3 0 1.4 3.3 3.8 8.5 8.1 14.2q1.7-1.4 3.7-2.6c2.2-1.3 4.5-2.4 7-3.1 0.9-0.3 3.9-1.1 5.7-1.1h0.7l0.9 0.2c1.6 0.5 2.4 1.3 2.7 1.6 1.1 0.9 1.8 1.9 2.5 2.7l0.4 0.6 0.1 0.1c3.6 5.1 5.4 11.4 5 16.9q0.3 0.2 0.5 0.4c0.2 0.2 0.4 0.3 0.6 0.5q2.2-0.4 4.7-0.4c4.3 0 8.8 1 12.7 3q0.8 0.4 1.4 0.8 3.9-10.1 12.3-31.4-12.6 0.2-33.6 2.1z"/>
			</g>
			<g id="&lt;Group&gt;">
				<g id="&lt;Group&gt;">
					<path id="&lt;Compound Path&gt;" class="s1" d="m25.2 66.1q0-2.4 2.1-3.8c1.2-0.7 2.3-1.2 3.7-1.2 4.9 0 12.4 5.1 24.8 18.8l12.3-29.5c-13.5-13.7-27.4-18.9-38.5-18.9-10.6 0-18.8 4.8-22 11.3-2.2 4.5-3.2 9-3.2 13.4 0 29.1 40.9 55.6 40.9 63.4l-0.2 0.7c-0.4 1.3-1.5 1.9-2.8 1.9-5.5 0-16.4-8.8-22-16.4l-11.8 18.2c11.6 8.7 22.9 12.3 32.2 12.3 13.2 0 22.2-7.2 22.2-17.3 0-3.5-1-7.2-3.4-11.1-5.2-8.8-34.3-31.4-34.3-41.8z"/>
					<path id="&lt;Compound Path&gt;" class="s1" d="m122.4 67.3h-1.6c-6.3 0-14.8 3.1-21 11.6l3.7-44.6h-29.6l3.7 97.6h17.7l2.8-33.5c3.8-7.2 8.3-9.6 12.1-9.6 1.4 0 2.9 0.4 4.1 1 3.3 1.5 8.8 8.9 8.8 22 0 5.5-1 12.2-3.4 19.7h27c1.4-7.4 2-14 2-19.9 0-29.4-15-43.1-26.3-44.3z"/>
					<path id="&lt;Compound Path&gt;" class="s1" d="m170.4 46.2c-8.8 0-15.8 6-15.8 13.7 0 7.4 7 13.6 15.8 13.6 8.6 0 15.7-6.2 15.7-13.6 0-7.7-7.1-13.7-15.7-13.7zm-11.9 31.9l3.1 53.4 15.9 0.4 4.8-53.8z"/>
				</g>
			</g>
			<g id="&lt;Group&gt;">
				<g id="&lt;Group&gt;">
					<path id="&lt;Compound Path&gt;" fill-rule="evenodd" class="s1" d="m463.9 157.2c0 14.1-34.5 32.2-63.3 32.2-20.5 0-38.1-9.2-38.1-35.8h15.3c0 14.6 15.7 19.2 32 19.2 17.2 0 35-5.2 35-9.6 0-2.9-8.3-5.3-30.9-5.3-4.4 0-9.5 0.1-15 0.3l3.5-22.1c-18.3-2.7-26.8-17.8-26.8-33.6 0-18.5 11.9-37.8 33.1-37.8 4.7 0 10 1 15.8 3.2 4.5-6.1 12.4-14.8 21-16.1l4.2 18.8c-0.8-0.4-1.6-0.6-2.6-0.6-3.8 0-8.8 2.9-12.6 5.8 3.1 4.5 4.7 11.6 4.7 19.4 0 15.8-6.7 34.4-20.9 39.7l-1 6c34 0.7 46.6 7.8 46.6 16.3zm-44.1-63.9c0-9-2-16.8-6.2-16.8-1.6 0-3.4 1.2-5.7 3.8-4.2 5.1-6.2 14.7-6.2 23.5 0 9.7 2.4 18.4 7 18.4q0.8-0.1 1.6-0.5c6.1-2.5 9.5-16.5 9.5-28.4z"/>
					<path id="&lt;Compound Path&gt;" class="s1" d="m505.5 67.3l1.7 33.9c-3.9 7.1-8.3 9.2-12.1 9.2-1.4 0-2.8-0.3-4-0.8-3.2-1.6-8.6-8.9-8.6-22.2 0-5.6 0.9-12.1 3.3-19.6h-27c-1.4 7.2-2 13.8-2 19.7 0 29.6 15.1 43.4 26.3 44.4l1.8 0.1c7.2 0 16.7-4.1 23.1-15.1l0.7 14.6 15.8 0.4 4.8-64.6z"/>
					<path id="&lt;Compound Path&gt;" fill-rule="evenodd" class="s1" d="m604.4 34.3l-8.2 97.6h-17.8l-0.1-4.2c-6.4 2.6-11.9 3.8-16.8 3.8-17.8 0-26-15.6-26-31.2 0-16.2 8.6-32.4 24.3-32.4 4.8 0 10.3 1.6 16.5 5.2l-1.4-38.8zm-26.7 76.5l-1-27.3c-3-1.2-5.8-1.6-8.2-1.6-9.6 0-14.4 7.6-14.4 15.4 0 7.6 4.8 15.4 14.7 15.4 2.5 0 5.5-0.6 8.9-1.9z"/>
				</g>
			</g>
			<g id="&lt;Group&gt;">
				<path id="&lt;Path&gt;" class="s2" d="m265.8 161.8q-0.3 1.6-0.7 3c-1.3 4.7-3.9 8.8-7.4 12-4.4 3.9-9.3 5.9-14.5 5.6-0.6 0-1.3 0-1.5-0.1-0.2 0-0.7-0.1-1.1-0.2-0.7-0.1-0.8-0.1-1.1-0.5-1-1-2.5-4.5-3.4-8.2-0.9-3.8-1.1-5.6-1-7.8l0.1-1.2c-0.6-0.4-0.9-0.5-1.5-1.1-0.8-0.6-0.9-0.8-1.2-1.3l-1.3 0.2c-2.1 0.5-3.9 0.5-7.9 0.1-3.7-0.4-7.4-1.3-8.5-2.2-0.4-0.3-0.5-0.3-0.7-1-0.1-0.3-0.3-0.8-0.4-1 0-0.2-0.2-0.9-0.3-1.5-0.9-5.1 0.3-10.3 3.6-15.2 3.2-4.7 8-8.3 13.7-10.1 1.1-0.3 3.7-0.8 4.1-0.7 0.2 0 0.2 0.1 0.4 0.3 0.8 0.7 1.5 1.6 2.1 2.4 3.4 4.8 4.8 11.1 3.6 15.7-0.1 0.5-0.2 1-0.2 1 0.9 0.3 1.8 0.6 3.1 1.7 1.2 1 1.6 1.7 2.1 2.9 0 0 0.5-0.2 0.9-0.4 4.4-1.9 10.9-1.3 16.1 1.3 0.7 0.4 1.4 0.8 2 1.2 0.5 0.4 1 0.7 1.1 1 0.1 0.3 0 3-0.2 4.1z"/>
			</g>
		</g>
	</g>
</svg>